/* XPM */
static char *f493f115540e470e8f22ed23fc1f66e86kdAs8URIDHOrExJ[] = {
/* columns rows colors chars-per-pixel */
"64 64 6 1 ",
"  c #93E3E4",
". c black",
"X c #0D5E20",
"o c #418050",
"O c #6F9E82",
"+ c white",
/* pixels */
"                                                                ",
"                                                                ",
"                                                                ",
"           X                                                    ",
"            X                                                   ",
"            X                                        X          ",
"             X                                      X           ",
"             X                                      X           ",
"  X           X                                    X            ",
"   XX          XX                                  X            ",
"     X           XX                               X             ",
"      XX           XX                             X             ",
"        X            XX   XXXXXXXXX            XXX              ",
"        X              XXXoooooooooXXX     XXXX                 ",
"        X            XXoooooooooooooooXXXXX                     ",
"        X           XoooooooooooooooooooX                       ",
"        X          XoooooooooooooooooooooX                      ",
"        XX        XoooooooooooooooooooooooX                     ",
"          XXXX   XoooooooooooooooooooooooooX                    ",
"              XXXoooooooooooooooooooooooooooX                   ",
"               XoooooooooooooooooooooooooooooX                  ",
"              XoooooooooooooooooooooooooooooooX                 ",
"              XoooooooooooooooooooooooooooooooX                 ",
"             XoooooooooooooooooooooooooooooooooX                ",
"             XoooooooooooooooooooooooooooooooooX       X        ",
"             XoooooooooooooooooooooooooooooooooX     XX XX      ",
"            Xoooooooooo+++oooooooooo+++oooooooooX   X     X     ",
"            Xooooooooo+...+oooooooo+...+ooooooooX  X       X    ",
"            Xooooooooo+...+oooooooo+...+ooooooooXXX         XX  ",
" X        XXXooooooooo+...+oooooooo+...+ooooooooX             X ",
"  X     XX  Xoooooooooo+++oooooooooo+++oooooooooX               ",
"   X  XX    XoooooooooooooooooooooooooooooooooooX               ",
"    XX      XoooooooooooooooooooooooooooooooooooX               ",
"            XoooooooooooooooooooooooooooooooooooX               ",
"            XooooooooooooooooooooooooooooOooooooX               ",
"             XoooooooOOoooooooooooooooooOooooooX                ",
"             XoooooooooOOOoooooooooooooOoooooooX                ",
"             XooooooooooooOOoooooooooOOooooooooX                ",
"              XoooooooooooooOOOOOOOOOoooooooooX                 ",
"              XoooooooooooooooooooooooooooooooX                 ",
"               XoooooooooooooooooooooooooooooXX                 ",
"              X XoooooooooooooooooooooooooooX  X                ",
"             X   XoooooooooooooooooooooooooX   X                ",
"           XX     XoooooooooooooooooooooooX     X               ",
"          X        XoooooooooooooooooooooX       X              ",
"         X          XoooooooooooooooooooX        X    XXX       ",
"        X            XXoooooooooooooooXX          XXXX          ",
"        X              XXXoooooooooXXX                          ",
"        X                XXXXXXXXXX XX                          ",
"         X              X             XX                        ",
"         X             X                XXX                     ",
"         X             X                   XX                   ",
"                      X                      XX                 ",
"                   XXX                        X                 ",
"                 XX                            X                ",
"               XX                              X                ",
"                                                                ",
"                                                                ",
"                                                                ",
"                                                                ",
"                                                                ",
"                                                                ",
"                                                                ",
"                                                                "
};
