/* XPM */
static char *_c88fd8c83b34661b771a1265acdab94MPgbEp8ZSXJVfO4J[] = {
/* columns rows colors chars-per-pixel */
"32 32 8 1 ",
"  c #93E3E4",
". c black",
"X c #4CAF50",
"o c #54B150",
"O c #8BC349",
"+ c #8BC34A",
"@ c #8CC249",
"# c white",
/* pixels */
"                                ",
"                                ",
"                    X           ",
"        X           X           ",
"         X          X           ",
"          XX       X        X   ",
"            X      X       X    ",
"             XXXXXXX     XX     ",
"            oX+++++XX   X       ",
"   XX     o++++++++++XXX        ",
"     XX  o+++++++++++++X        ",
"       XX++++++++++++++X        ",
"        X+++++++++++++++X       ",
"        X+++++++++++++++X       ",
"       X++++++#+++++#++++X      ",
"       X+++++#.#+++#.#+@@X   XX ",
"    XXXX++++++#+++++#++++XXXX   ",
"  XX   X+++++++++++++++++X      ",
"       X+++++++++++++++++X      ",
"        X++++X+++++++++++       ",
"        X+++++XXXXX+++++X       ",
"        XX+++++++++++++X        ",
"       X X+++++++++++++XX       ",
"      X   XX+++++++++XX  X      ",
"     X      XX+++++XX     X     ",
"    X       X XXXXX X      X    ",
"           X         X          ",
"           X         X          ",
"          X           X         ",
"                                ",
"                                ",
"                                "
};
