/* XPM */
static char *_0b18bb301894db9a440f87351ba08e8a1jigsDg0nyLhIWB[] = {
/* columns rows colors chars-per-pixel */
"192 32 11 1 ",
"  c None",
". c #301C19",
"X c #481C11",
"o c #422F1F",
"O c #693422",
"+ c #5F4731",
"@ c #895136",
"# c #AA734C",
"$ c #EA4545",
"% c #AB8D76",
"& c #CFB19B",
/* pixels */
"                                                                                                                                                                                                ",
"                                                                                                                                                                                                ",
"                                                                                                                                                                                                ",
"                                                                                                                                                                                                ",
"                                                                                                                                                                                                ",
"                   ..                                                                                              ..                                              ..                           ",
"               .. ..+.. ...                                        ..                                          .. ..+.. ...                                    .. ..+.. ...                     ",
"               .+..o++...+...                                  .. ..+.. ...                                    .+..o++...+...                                  .+..o++...+...                   ",
"           .....++oo++oo++.+.                                  .+..o++...+...                              .....++oo++oo++.+.                              .....++oo++oo++.+.                   ",
"           .++.o++oo++oo++++....                           .....++oo++oo++.+.                              .++.o++oo++oo++++....                           .++.o++oo++oo++++....                ",
"           ..++o+++o++o++o++o.o.                           .++.o++oo++oo++++....                           ..++o+++o++o++o++o.o.                           ..++o+++o++o++o++o.o.                ",
"            .o+++++oO@@@@Oo+ooo.                           ..++o+++o++o++o++o.o.                            .o+++++oO@@@@Oo+ooo.                            .o+++++oO@@@@Oo+ooo.                ",
"           .oo+++oO@######@Oooo..                           .o+++++oO@@@@Oo+ooo.                           .oo+++oO@######@Oooo..                          .oo+++oO@######@Oooo..               ",
"           ..oo++O@#########@ooo.                          .oo+++oO@######@Oooo..                          ..oo++O@#########@ooo.                          ..oo++O@#########@ooo.               ",
"            ...oO@@##########@oo..                         ..oo++O@#########@ooo.                           ...oO@@##########@oo..                          ...oO@@##########@oo..              ",
"            ....@@@##########@@oo.                          ...oO@@##########@oo..                          ....@@@##########@@oo.                          ....@@@##########@@oo.              ",
"           O.@@..@@@########@@@Oo.                          ....@@@##########@@oo.                         ......@@##########@@Oo.                         O.@@..@@@########@@@Oo.              ",
"           OO%%@.@@@@######@@@@@..                         O.@@..@@@########@@@Oo.                         ......@@@########@@@Oo.                         OO%%@.@@@@######@@@@@..              ",
"           OOO%+@@@@@@@@@@@@@@@@..                         OO%%@.@@@@######@@@@@..                         OO%%@.@@@@######@@@@@..                         OOO%+@@@@@@@@@@@@@@@@..              ",
"     ..... ....+@@@@@@@@@@@@@@@@O.                         OOO%+@@@@@@@@@@@@@@@@..                         OOO%+@@@@@@@@@@@@@@@@..                   ..... ....+@@@@@@@@@@@@@@@@O.              ",
"     .%.&...$.@@@@@@@@@@@@@@@@@@O.......             ..... ....+@@@@@@@@@@@@@@@@O.                   ..... ....+@@@@@@@@@@@@@@@@O.                   .%.&...$.@@@@@@@@@@@@@@@@@@O..             ",
"    ..%.&..O@@@@@@@@@@@@@@@@@@@@OX.XOOO..            .%.&...$.@@@@@@@@@@@@@@@@@@O.......         &&  .%.&...$.@@@@@@@@@@@@@@@@@@O.. ....         && ..%.&..O@@@@@@@@@@@@@@@@@@@@OX......        ",
"    .++.&&O@@@@@@@@@@@@@@@##@@@OXX.XX.OO.       &&  ..%.&..O@@@@@@@@@@@@@@@@@@@@OX.XOOO..       &&& ..%.&..O@@@@@@@@@@@@@@@@@@@@OX..OOO..           .++.&&O@@@@@@@@@@@@@@@##@@@OXX.XOOO..       ",
"  &&..+.&%%@@@###@@@@@@O@####@OXXXXX...O..      &&  .++.&&O@@@@@@@@@@@@@@@##@@@OXX.XX.OO..      &&  .++.&&O@@@@@@@@@@@@@@@##@@@OXX.XX.OO.           ..+.&%%@@@###@@@@@@O@####@OXXXXXX.OO.       ",
"    ..+..%%%@####@@@O@@O@####OXXXXX.  .o..       && ..+.&%%@@@###@@@@@@O@####@OXXXXX. .o..       && ..+.&%%@@@###@@@@@@O@####@OXXXXX...O..          ..+..%%%@####@@@O@@O@####OXXXXXX...o..      ",
"    .......OO####@@@OOOOO###@@XXXX.   .oo.          ..+..%%%@####@@@O@@O@####OXXXXX.  .oo.          ..+..%%%@####@@@O@@O@####OXXXXXX  .o..          .......OO####@@@OOOOO###@@XXXX..  .oo.      ",
"       ......XXXO@@@@...XO@@@@XXX.     oo.          .......OO####@@@OOOOO###@@XXXX.    oo.          .......OO####@@@OOOOO###@@XXXX..  .oo.             ......XXXO@@@@...XO@@@@XXX.     oo.      ",
"         .......XO@@@.....X@@OXX.       o.             ......XXXO@@@@...XO@@@@XXX.      o.             ......XXXO@@@@...XO@@@@XXX.     oo.               .......XO@@@.....X@@OXX.       o.      ",
"            .... OOO@.. ...XXXXX.       ..               .......XO@@@.....X@@OXX.       ..               .......XO@@@.....X@@OXX.       o.                  .... OOO@.. ...XXXXX.       ..      ",
"            ....XOOOX   ....OOOX.                           ....XOOOX   ....OOOX.                           ....XOOOX   ....OOOX.       ..                  ....XOOOX   ....OOOX.               ",
"            ... XOOO     ....OOO.                           ... XOOO     ....OOO.                           ... XOOO     ....OOO.                           ... XOOO     ....OOO.               ",
"           o.o. %O%O    o.o.%O%O.                          o.o. %O%O    o.o.%O%O.                          o.o. %O%O    o.o.%O%O.                          o.o. %O%O    o.o.%O%O.               "
};
