/* XPM */
static char *_419c6587a5c4d23a332acf83642f493rkj35aXQmpXJ0KRy[] = {
/* columns rows colors chars-per-pixel */
"41 60 9 1 ",
"  c None",
". c #2D2214",
"X c #372917",
"o c #2D3335",
"O c #40311E",
"+ c #493823",
"@ c #6A5337",
"# c #3B3E47",
"$ c #464A55",
/* pixels */
"                                         ",
"                                         ",
"                                         ",
"   ++++++++++++++++++++++++++++++++++++  ",
"  @++++++++++++++++++++++++++++++++++++@ ",
"  @++++++++++++++++++++++++++++++++++++@ ",
"  @OOOOOOOOOOOOOOOOOOOOOOOOOOOOOOOOOOOO@ ",
"  @OOOOOOOOOOOOOOOOOOOOOOOOOOOOOOOOOOOO@ ",
"  @@@................................@@@ ",
"    @OOXO..........XXXX..........OXOO@   ",
"    @OOXO.......XX.XXXX.XX.......OXOO@   ",
"    @OOXO....XX.XX.XXXX.XX.XX....OXOO@   ",
"    @OOOO.XX.XX.XX.OOOO.XX.XX.XX.OOOO@   ",
"    @OOOO.XX.XX.OO.OOOO.OO.XX.XX.OOOO@   ",
"    @OOOO.XX.OO.OO.OOOO.OO.OO.XX.OOOO@   ",
"    @OOOO.OO.OO.OO.OOOO.OO.OO.OO.OOOO@   ",
"    @OOOOoo####################ooOOOO@   ",
"    @OOOOoo####################ooOOOO@   ",
"    @OOOO........................OOOO@   ",
"    @OOOO.XX.XX.XX.XXXX.XX.XX.XX.OOOO@   ",
"    @OOOO.XX.XX.XX.XXXX.XX.XX.XX.OOOO@   ",
"    @OOOO.XX.XX.XX.XXXX.XX.XX.XX.OOOO@   ",
"    @OOXO.XX.XX.XX.XXXX.XX.XX.XX.OXOO@   ",
"    @OOXO.OO.OO.OO.OOOO.OO.OO.OO.OXOO@   ",
"    @OOXO.OO.OO.OO.OOOO.OO.OO.OO.OXOO@   ",
"    @OOXO.OO.OO.OO.OOOO.OO.OO.OO.OXOO@   ",
"    @OOXO.OO.OO.OO.OOOO.OO.OO.OO.OXOO@   ",
"    @XXXO.OO.OO.OO.OOOO.OO.OO.o$$oXXX@   ",
"    @XXXO.OO.OO.OO.OOOO.OO.OO.#$$#.XX@   ",
"    @OOXO.OO.OO.OO.OOOO.OO.OO.#..#.OO@   ",
"    @XXXO.OO.OO.OO.OOOO.OO.OO.o..o.XX@   ",
"    @OOXO.OO.OO.OO.OOOO.OO.OO.o..o.OO@   ",
"    @XXXO.OO.OO.OO.OOOO.OO.OO.oooo.XX@   ",
"    @XXXO.OO.OO.OO.OOOO.OO.OO..oo..XX@   ",
"    @OOXO.OO.OO.OO.OOOO.OO.OO.....XOO@   ",
"    @OOXO.OO.OO.OO.OOOO.OO.OO.OO.OXOO@   ",
"    @OOXO.OO.OO.OO.OOOO.OO.OO.OO.OXOO@   ",
"    @OOXO.OO.OO.OO.OOOO.OO.OO.OO.OXOO@   ",
"    @OOXO.OO.OO.OO.OOOO.OO.OO.OO.OXOO@   ",
"    @OOXO.OO.OO.OO.OOOO.OO.OO.OO.OXOO@   ",
"    @OOXO.OO.OO.OO.OOOO.OO.OO.OO.OXOO@   ",
"    @OOXOoo####################ooOXOO@   ",
"    @OOXXoo####################ooXXOO@   ",
"    @OOXO........................OXOO@   ",
"    @OOXO.XX.XX.XX.XXXX.XX.XX.XX.OXOO@   ",
"    @OOXO.XX.XX.XX.XXXX.XX.XX.XX.OXOO@   ",
"    @OOXO.OO.OO.OO.OOOO.OO.OO.OO.OXOO@   ",
"    @OOXO.OO.OO.OO.OOOO.OO.OO.OO.OXOO@   ",
"    @OOOO.OO.OO.OO.OOOO.OO.OO.OO.OOOO@   ",
"    @OOOO.OO.OO.OO.OOOO.OO.OO.OO.OOOO@   ",
"    @OOOO.OO.OO.OO.OOOO.OO.OO.OO.OOOO@   ",
"    @XXXX.OO.OO.OO.OOOO.OO.OO.OO.XXXX@   ",
"    @XXXX.OO.OO.OO.OOOO.OO.OO.OO.XXXX@   ",
"    @XXXX.OO.OO.OO.OOOO.OO.OO.OO.XXXX@   ",
"    @XXXX.OO.OO.OO.OOOO.OO.OO.OO.XXXX@   ",
"    @XXXX.OO.OO.OO.OOOO.OO.OO.OO.XXXX@   ",
"    @XXXX.OO.OO.OO.OOOO.OO.OO.OO.XXXX@   ",
"                                         ",
"                                         ",
"                                         "
};
