/* XPM */
static char *_339fa58bb8d46a5dfad4fa66cdbdf0ch6h5j5W98StKwbbo[] = {
/* columns rows colors chars-per-pixel */
"78 69 11 1 ",
"  c None",
". c #1C1F0A",
"X c #272113",
"o c #2C271A",
"O c #2B251C",
"+ c #342E1E",
"@ c #3C3326",
"# c #3D3625",
"$ c #52432E",
"% c #6C573A",
"& c #846943",
/* pixels */
"                    &&&&&&        %%%%%                                       ",
"                  &&&&&&&&&&$   %%%%%%%%%                                     ",
"        %%%%%   &&&&&&&&&&&&$$ %%%%%%%%%%%  %%%%%%%%      %%%%%    %%%%       ",
"      %%%%%%%%%%&&&&&&&&&&&$$$%%%%%%%%%%%%$%%%%%%%%%%%   %%%%%%%  %%%%%%      ",
"     %%%%%%&&&&%&&&&&&&&&&%%%%%%%%%%%%%%%$$%%%%%%%%%%%$ %&&&&&&%%%%%%&&&&&&   ",
"     %%%%%&&&&&&%&&&&&&&&%%&&&&&&&%%%%%%%&&&&&&&%%%%%$$&&&&&&&&&%%%%&&&&&&&&  ",
"     %%%%&&&&&&&&%%%%%%%$$&&&&&&&&&%%%%%&&&&&&&&&%%%$$&&&&&&&&&&&%%&&&&&&&&&  ",
"     @%%%&&&&&&&&&%&&%$$$$&&&&&&&&&%%%$&&&&&&&&&&&$$$&&&&&&&&&&&&&%&&&&&&&&&. ",
"     @@@O%&&&&&&&&$.OO@@O.%&&&&&&&$OOO@&&&&&&&&&&&$.O&&&&&&&&&&&&&$$&&&&&&&$. ",
"     @@@O.%&&&&&%@@.OOOO..$%&&&&%@@OOOO%&&&&&&&&%@@.O&&&&&&&&&&&%@@$$&&&&&$.. ",
"     @@@..$$$$$$$@OO.OO...$$$$$$$@OOOOO$%&&&&$$$$@OO.%&&&&&&&&&$$@@$$$$@@OO.. ",
"      OO.@$$$$$$@OOOO....@$$$$$$@@@@@O.$$$$$$$$$@O...$$%&&&&&%$$@O@@$$%%%%$.  ",
"      OO.@@$$$$@OOOOO....@@@$$$@@@@@@@.@$$$$$$$@O....$$$$$@@$$$@OOO@&&&&&&&.  ",
"       OO@@@@@@OOOOOO....@@@@@OO@@@@@@..$$$@@@OO.....O$$$$@@@@OOOOO&&&&&&&&&  ",
"    $$$$O@@@@@@OOOOO@@@O.@@@@@@O@@@@@O..O@@@@@@O......$$$@@@@@@OOO.&&&&&&&&&  ",
"   $$$$$$.@@@@@OOOO@@@@@..@@@@@OO@@@O....@@@@@@O......O@@@@@@@@O...$&&&&&&&$  ",
"   $$$$$$.O@@@O....O@@@OO.O@@@OOOOOOO....O@@@@O........@@@O@@@O....@$&&&&&$.  ",
"   @$$$@O..OOOO....OOO.OO.OOOOOO.OOOO.....OOOOO........O@@OOOOO....@@@@@O...  ",
"   @@@OO...OOOO....OOO.....OOOOO.OOOO......OOOO.........OOOOOOO....O@@@O...   ",
"   @@@OOOO..OO......OO......OOO...OO........OOO.........OOOOOO......@@O....   ",
"   .@@OOOOO..............................................OOOO.......OOO...    ",
"    .OOOOOOOOO..............................................XX..@@@OOOOOO@@   ",
"    .OOO@$$@OOO.................XX.........XX...oo..XX.XX.XooXX@@@@@OOO@$$$$  ",
"     OO@$$$$@OO.................XX.XX.....XXXX..ooXooXXXXXooooX@@@@@.O@$$$$$$ ",
"      O$$$$$@.....XXXX............ooooX...XXXX...X++++oXXXooooXO@@@..@@$$$$$$ ",
"       $$$$@.....XXXXXXX.........oooooooX..XXX...+++++++o.Xooo..OO...O@$$$$$@.",
"       @$$@@.....ooXXXXXX........++oooooo........##++++++.XXXX...O...OO@$$$$O.",
"    OOOO@@O.......XooXXXX.......XXo++oooo.......oo+##++++XXXX.........O@@$$@..",
"   @@@OOOOO.........XXX.........XXXXoooX........oooo+++oXXXX....OOOO...O@@@O..",
"  @@@@@OOOO.....................XXXXXX...XX.....ooooooX.XooX...OOOOOO...@@O...",
"  @@@@..$$$.............XXXX....XXXXXX..ooooX...oooooo..++++oX.OOO@$$$...OO...",
"  O@@..$$$$$@..........XXXXXX....XXXX..oooooo...XooooX.++++++X...@$$$$$..OO...",
"  OOO.@$$$$$@..........XXXXXX....XXXX..oooooo..XXoooo..++++++X...@$$$$$O.O... ",
"  OOO.@@$$$@OOO.........XXXX......XX...XooooX..XXXooX..o++++o..OOO@$$$@O..... ",
"   ..O@@@@@OOOO........................XXXX......XXX...ooooXX..OOOO@@@OOO...  ",
"   ..O@@@@..OOO.........................XX........XX...XooXX...OOO..@@OOO...  ",
"    .OO@@O..OO...........................X..............XoXX....OO..O@OOO..   ",
"   @@OOOOOO@@@..................................................OO@@$$$@O     ",
"  $$$$@OOO@@@@@................................................OO@@$$$$$@     ",
" $$$$$$@OO@@@@@................................................OO@$$$$$$O.    ",
" $$$$$$@@OO@@@O..................................................@$$$$$@O.    ",
"@$$$$$$@OOOOOO...................................................O@$$$@OO.    ",
"@@$$$$O...OOO......................................................O@@@...    ",
"@@@$$@O..OO........................................................O@@@...    ",
"@@@@@O...OOO......................................................OOO@O...    ",
"@@@@@....OOO......................................................OOOOO..     ",
"O@@@O...$$$@......................................................@$$$O.      ",
"OOO@@..$$$$$@....................................................@$$$$$O      ",
" O@@OO@$$$$$@....................................................@$$$$$@      ",
" OOOOO@@$$$@OOO................................................OOO@$$$@@O     ",
"  OOOO@@@@@OOOO................................................OOOO@@@@@O     ",
"  OO.O@@@@..OOO................................................OOO..@@@@O.    ",
"   ..OO@@O..OO..................................................OO..O@@OO..   ",
"   ...OO.............OOOO...........OOOO........OOO..................OOO....  ",
"   @@@@OO...........OOOOOO.........OOOOOO.@@@OOOOOOOO...............O@@OO...  ",
"  @@@@@@O....@@@@...@@OOOO...@@@...OOOOOO@$$$$@@OOOOO........@@@@...@@@@O...  ",
"  @@@@@@...$$$$$$@..OO@@...$$$$$@..OOOO@$$$$$$$$@OOO.......@$$$$$@..O@@@....  ",
"  @@@@@...$$$$$$$@@.OOOO..$$$$$$$...OO@$$$$$$$$$$OO..@@O..@$$$$$$@@.OOO.....  ",
"  O@@@O...$$$$$$$@OO.OOO..$$$$$$$O....$$$$$$$$$$$O..@@@@..$$$$$$$@OO.OO....   ",
"  OOOOO..@$$$$$$@OOOO....@$$$$$$@O....$$$$$$$$$$@...O@@O.@$$$$$$@OOOO.....    ",
"   OOOO..@@@$$$@OOOOO....@@@$$$@O.....@$$$$$$$@@....OOO..@@@$$$@OOOOO.....    ",
"   OOO...@@@@@OOOOOOO....@@@@@OOO.....@@$$$$@OOO... .O...@@@@@OOOOOOO....     ",
"    .... @@@@@@OOOOO@@@O.@@@@@@O......O@@@@@OOOO...  ... @@@@@@OOOOO@@@.      ",
"         .@@@@@OOOO@@@@@..@@@@@O.OOO...@@@@OOOOO...       @@@@@OOOO@@@@@.     ",
"         .O@@@O....O@@@OO.O@@@O.OOOOO..O@@@OOO....        O@@@O....O@@@OO     ",
"          OOOOO....OOO.OO.OOOOO.OOOOO  .O@@OOO....        OOOOO....OOO.OO     ",
"          .OOOO....OOO... .OOOO..OOO     ..OOO...         .OOOO....OOO...     ",
"           OOOO... .OO..   OOOO..         ..OO...          OOOO... .OO..      ",
"            ....    ...     ....            ....            ....    ...       "
};
